<?xml version="1.0" encoding="UTF-8"?>
<svg width="200px" height="200px" viewBox="0 0 200 200" version="1.1" xmlns="http://www.w3.org/2000/svg">
    <g id="Logo" stroke="none" stroke-width="1" fill="none" fill-rule="evenodd">
        <circle id="Background" fill="#F9F5FF" cx="100" cy="100" r="100"></circle>
        <g id="Flower" transform="translate(40.000000, 30.000000)">
            <path d="M60,0 C77.6731119,0 92,14.3268881 92,32 C92,49.6731119 77.6731119,64 60,64 C42.3268881,64 28,49.6731119 28,32 C28,14.3268881 42.3268881,0 60,0 Z" id="Center" fill="#8B5CF6" opacity="0.8"></path>
            <path d="M20,40 C31.045695,40 40,48.954305 40,60 C40,71.045695 31.045695,80 20,80 C8.954305,80 0,71.045695 0,60 C0,48.954305 8.954305,40 20,40 Z" id="Petal-1" fill="#C4B5FD"></path>
            <path d="M100,40 C111.045695,40 120,48.954305 120,60 C120,71.045695 111.045695,80 100,80 C88.954305,80 80,71.045695 80,60 C80,48.954305 88.954305,40 100,40 Z" id="Petal-2" fill="#C4B5FD"></path>
            <path d="M20,0 C31.045695,0 40,8.954305 40,20 C40,31.045695 31.045695,40 20,40 C8.954305,40 0,31.045695 0,20 C0,8.954305 8.954305,0 20,0 Z" id="Petal-3" fill="#C4B5FD"></path>
            <path d="M100,0 C111.045695,0 120,8.954305 120,20 C120,31.045695 111.045695,40 100,40 C88.954305,40 80,31.045695 80,20 C80,8.954305 88.954305,0 100,0 Z" id="Petal-4" fill="#C4B5FD"></path>
            <path d="M60,80 C71.045695,80 80,88.954305 80,100 C80,111.045695 71.045695,120 60,120 C48.954305,120 40,111.045695 40,100 C40,88.954305 48.954305,80 60,80 Z" id="Petal-5" fill="#C4B5FD"></path>
            <path d="M60,64 C65.5228475,64 70,68.4771525 70,74 C70,79.5228475 65.5228475,84 60,84 C54.4771525,84 50,79.5228475 50,74 C50,68.4771525 54.4771525,64 60,64 Z" id="Center-Detail" fill="#6D28D9"></path>
        </g>
    </g>
</svg>
