<svg width="100" height="100" viewBox="0 0 100 100" fill="none" xmlns="http://www.w3.org/2000/svg">
  <g opacity="0.1">
    <path d="M20 20C25 15 35 15 40 20C45 25 45 35 40 40C35 45 25 45 20 40C15 35 15 25 20 20Z" fill="#8B5CF6"/>
    <path d="M60 20C65 15 75 15 80 20C85 25 85 35 80 40C75 45 65 45 60 40C55 35 55 25 60 20Z" fill="#8B5CF6"/>
    <path d="M20 60C25 55 35 55 40 60C45 65 45 75 40 80C35 85 25 85 20 80C15 75 15 65 20 60Z" fill="#8B5CF6"/>
    <path d="M60 60C65 55 75 55 80 60C85 65 85 75 80 80C75 85 65 85 60 80C55 75 55 65 60 60Z" fill="#8B5CF6"/>
    <path d="M40 40C45 35 55 35 60 40C65 45 65 55 60 60C55 65 45 65 40 60C35 55 35 45 40 40Z" fill="#8B5CF6"/>
  </g>
</svg>