<svg width="400" height="400" viewBox="0 0 400 400" fill="none" xmlns="http://www.w3.org/2000/svg">
  <rect width="400" height="400" rx="10" fill="#F8F0FF"/>
  <rect x="175" y="250" width="50" height="100" rx="5" fill="#A78BFA"/>
  <path d="M200 50C220 70 220 110 200 130C180 110 180 70 200 50Z" fill="#8B5CF6"/>
  <path d="M200 130C220 150 220 190 200 210C180 190 180 150 200 130Z" fill="#8B5CF6"/>
  <path d="M200 210C220 230 220 270 200 290C180 270 180 230 200 210Z" fill="#8B5CF6"/>
  <path d="M150 100C170 120 170 160 150 180C130 160 130 120 150 100Z" fill="#8B5CF6"/>
  <path d="M250 100C270 120 270 160 250 180C230 160 230 120 250 100Z" fill="#8B5CF6"/>
  <path d="M150 180C170 200 170 240 150 260C130 240 130 200 150 180Z" fill="#8B5CF6"/>
  <path d="M250 180C270 200 270 240 250 260C230 240 230 200 250 180Z" fill="#8B5CF6"/>
</svg>